<svg width="180" height="48" viewBox="0 0 180 48" fill="none" xmlns="http://www.w3.org/2000/svg">
<path d="M17.6 17.696V14.4H14.4V17.696C11.156 18.0601 8.13204 19.5156 5.82381 21.8238C3.51558 24.132 2.0601 27.156 1.696 30.4H0V33.6H32V30.4H30.304C29.9399 27.156 28.4844 24.132 26.1762 21.8238C23.868 19.5156 20.844 18.0601 17.6 17.696Z" fill="white"/>
<path d="M47.2074 15.0455V32.5H43.517V15.0455H47.2074ZM57.2152 19.4091V22.1364H49.1357V19.4091H57.2152ZM50.9851 32.5V18.4631C50.9851 17.5142 51.1697 16.7273 51.5391 16.1023C51.9141 15.4773 52.4254 15.0085 53.0732 14.696C53.7209 14.3835 54.4567 14.2273 55.2805 14.2273C55.8374 14.2273 56.3459 14.2699 56.8061 14.3551C57.272 14.4403 57.6186 14.517 57.8459 14.5852L57.1982 17.3125C57.0561 17.267 56.88 17.2244 56.6697 17.1847C56.4652 17.1449 56.255 17.125 56.0391 17.125C55.505 17.125 55.1328 17.25 54.9226 17.5C54.7124 17.7443 54.6072 18.0881 54.6072 18.5312V32.5H50.9851ZM64.8793 32.7557C63.5554 32.7557 62.4105 32.4744 61.4446 31.9119C60.4844 31.3437 59.7429 30.554 59.2202 29.5426C58.6974 28.5256 58.4361 27.3466 58.4361 26.0057C58.4361 24.6534 58.6974 23.4716 59.2202 22.4602C59.7429 21.4432 60.4844 20.6534 61.4446 20.0909C62.4105 19.5227 63.5554 19.2386 64.8793 19.2386C66.2031 19.2386 67.3452 19.5227 68.3054 20.0909C69.2713 20.6534 70.0156 21.4432 70.5384 22.4602C71.0611 23.4716 71.3224 24.6534 71.3224 26.0057C71.3224 27.3466 71.0611 28.5256 70.5384 29.5426C70.0156 30.554 69.2713 31.3437 68.3054 31.9119C67.3452 32.4744 66.2031 32.7557 64.8793 32.7557ZM64.8963 29.9432C65.4986 29.9432 66.0014 29.7727 66.4048 29.4318C66.8082 29.0852 67.1122 28.6136 67.3168 28.017C67.527 27.4205 67.6321 26.7415 67.6321 25.9801C67.6321 25.2188 67.527 24.5398 67.3168 23.9432C67.1122 23.3466 66.8082 22.875 66.4048 22.5284C66.0014 22.1818 65.4986 22.0085 64.8963 22.0085C64.2884 22.0085 63.777 22.1818 63.3622 22.5284C62.9531 22.875 62.6435 23.3466 62.4332 23.9432C62.2287 24.5398 62.1264 25.2188 62.1264 25.9801C62.1264 26.7415 62.2287 27.4205 62.4332 28.017C62.6435 28.6136 62.9531 29.0852 63.3622 29.4318C63.777 29.7727 64.2884 29.9432 64.8963 29.9432ZM79.598 32.7557C78.2741 32.7557 77.1293 32.4744 76.1634 31.9119C75.2031 31.3437 74.4616 30.554 73.9389 29.5426C73.4162 28.5256 73.1548 27.3466 73.1548 26.0057C73.1548 24.6534 73.4162 23.4716 73.9389 22.4602C74.4616 21.4432 75.2031 20.6534 76.1634 20.0909C77.1293 19.5227 78.2741 19.2386 79.598 19.2386C80.9219 19.2386 82.0639 19.5227 83.0241 20.0909C83.9901 20.6534 84.7344 21.4432 85.2571 22.4602C85.7798 23.4716 86.0412 24.6534 86.0412 26.0057C86.0412 27.3466 85.7798 28.5256 85.2571 29.5426C84.7344 30.554 83.9901 31.3437 83.0241 31.9119C82.0639 32.4744 80.9219 32.7557 79.598 32.7557ZM79.6151 29.9432C80.2173 29.9432 80.7202 29.7727 81.1236 29.4318C81.527 29.0852 81.831 28.6136 82.0355 28.017C82.2457 27.4205 82.3509 26.7415 82.3509 25.9801C82.3509 25.2188 82.2457 24.5398 82.0355 23.9432C81.831 23.3466 81.527 22.875 81.1236 22.5284C80.7202 22.1818 80.2173 22.0085 79.6151 22.0085C79.0071 22.0085 78.4957 22.1818 78.081 22.5284C77.6719 22.875 77.3622 23.3466 77.152 23.9432C76.9474 24.5398 76.8452 25.2188 76.8452 25.9801C76.8452 26.7415 76.9474 27.4205 77.152 28.017C77.3622 28.6136 77.6719 29.0852 78.081 29.4318C78.4957 29.7727 79.0071 29.9432 79.6151 29.9432ZM93.2259 32.7131C92.2315 32.7131 91.331 32.4574 90.5241 31.946C89.723 31.429 89.0866 30.6705 88.6151 29.6705C88.1491 28.6648 87.9162 27.4318 87.9162 25.9716C87.9162 24.4716 88.1577 23.2244 88.6406 22.2301C89.1236 21.2301 89.7656 20.483 90.5668 19.9886C91.3736 19.4886 92.2571 19.2386 93.2173 19.2386C93.9503 19.2386 94.5611 19.3636 95.0497 19.6136C95.544 19.858 95.9418 20.1648 96.2429 20.5341C96.5497 20.8977 96.7827 21.2557 96.9418 21.608H97.0526V15.0455H100.675V32.5H97.0952V30.4034H96.9418C96.7713 30.767 96.5298 31.1278 96.2173 31.4858C95.9105 31.8381 95.5099 32.1307 95.0156 32.3636C94.527 32.5966 93.9304 32.7131 93.2259 32.7131ZM94.3764 29.8239C94.9616 29.8239 95.456 29.6648 95.8594 29.3466C96.2685 29.0227 96.581 28.571 96.7969 27.9915C97.0185 27.4119 97.1293 26.733 97.1293 25.9545C97.1293 25.1761 97.0213 24.5 96.8054 23.9261C96.5895 23.3523 96.277 22.9091 95.8679 22.5966C95.4588 22.2841 94.9616 22.1278 94.3764 22.1278C93.7798 22.1278 93.277 22.2898 92.8679 22.6136C92.4588 22.9375 92.1491 23.3864 91.9389 23.9602C91.7287 24.5341 91.6236 25.1989 91.6236 25.9545C91.6236 26.7159 91.7287 27.3892 91.9389 27.9744C92.1548 28.554 92.4645 29.0085 92.8679 29.3381C93.277 29.6619 93.7798 29.8239 94.3764 29.8239ZM118.751 20.0653C118.683 19.3778 118.391 18.8437 117.874 18.4631C117.357 18.0824 116.655 17.892 115.768 17.892C115.166 17.892 114.658 17.9773 114.243 18.1477C113.828 18.3125 113.51 18.5426 113.288 18.8381C113.072 19.1335 112.964 19.4688 112.964 19.8438C112.953 20.1562 113.018 20.429 113.161 20.6619C113.308 20.8949 113.51 21.0966 113.766 21.267C114.021 21.4318 114.317 21.5767 114.652 21.7017C114.987 21.821 115.345 21.9233 115.726 22.0085L117.294 22.3835C118.055 22.554 118.754 22.7812 119.391 23.0653C120.027 23.3494 120.578 23.6989 121.044 24.1136C121.51 24.5284 121.871 25.017 122.126 25.5795C122.388 26.142 122.521 26.7869 122.527 27.5142C122.521 28.5824 122.249 29.5085 121.709 30.2926C121.175 31.071 120.402 31.6761 119.391 32.108C118.385 32.5341 117.172 32.7472 115.751 32.7472C114.342 32.7472 113.115 32.5312 112.07 32.0994C111.03 31.6676 110.217 31.0284 109.632 30.1818C109.053 29.3295 108.749 28.2756 108.72 27.0199H112.291C112.331 27.6051 112.499 28.0937 112.794 28.4858C113.095 28.8722 113.496 29.1648 113.996 29.3636C114.501 29.5568 115.072 29.6534 115.709 29.6534C116.334 29.6534 116.876 29.5625 117.337 29.3807C117.803 29.1989 118.163 28.946 118.419 28.6222C118.675 28.2983 118.803 27.9261 118.803 27.5057C118.803 27.1136 118.686 26.7841 118.453 26.517C118.226 26.25 117.891 26.0227 117.447 25.8352C117.01 25.6477 116.473 25.4773 115.837 25.3239L113.936 24.8466C112.464 24.4886 111.303 23.929 110.45 23.1676C109.598 22.4062 109.175 21.3807 109.18 20.0909C109.175 19.0341 109.456 18.1108 110.024 17.321C110.598 16.5312 111.385 15.9148 112.385 15.4716C113.385 15.0284 114.521 14.8068 115.794 14.8068C117.089 14.8068 118.22 15.0284 119.186 15.4716C120.158 15.9148 120.913 16.5312 121.453 17.321C121.993 18.1108 122.271 19.0256 122.288 20.0653H118.751ZM130.856 32.7557C129.532 32.7557 128.387 32.4744 127.421 31.9119C126.461 31.3437 125.719 30.554 125.197 29.5426C124.674 28.5256 124.413 27.3466 124.413 26.0057C124.413 24.6534 124.674 23.4716 125.197 22.4602C125.719 21.4432 126.461 20.6534 127.421 20.0909C128.387 19.5227 129.532 19.2386 130.856 19.2386C132.18 19.2386 133.322 19.5227 134.282 20.0909C135.248 20.6534 135.992 21.4432 136.515 22.4602C137.038 23.4716 137.299 24.6534 137.299 26.0057C137.299 27.3466 137.038 28.5256 136.515 29.5426C135.992 30.554 135.248 31.3437 134.282 31.9119C133.322 32.4744 132.18 32.7557 130.856 32.7557ZM130.873 29.9432C131.475 29.9432 131.978 29.7727 132.381 29.4318C132.785 29.0852 133.089 28.6136 133.293 28.017C133.504 27.4205 133.609 26.7415 133.609 25.9801C133.609 25.2188 133.504 24.5398 133.293 23.9432C133.089 23.3466 132.785 22.875 132.381 22.5284C131.978 22.1818 131.475 22.0085 130.873 22.0085C130.265 22.0085 129.754 22.1818 129.339 22.5284C128.93 22.875 128.62 23.3466 128.41 23.9432C128.205 24.5398 128.103 25.2188 128.103 25.9801C128.103 26.7415 128.205 27.4205 128.41 28.017C128.62 28.6136 128.93 29.0852 129.339 29.4318C129.754 29.7727 130.265 29.9432 130.873 29.9432ZM145.575 32.7557C144.234 32.7557 143.08 32.4716 142.114 31.9034C141.154 31.3295 140.415 30.5341 139.898 29.517C139.387 28.5 139.131 27.3295 139.131 26.0057C139.131 24.6648 139.39 23.4886 139.907 22.4773C140.43 21.4602 141.171 20.6676 142.131 20.0994C143.092 19.5256 144.234 19.2386 145.558 19.2386C146.7 19.2386 147.7 19.446 148.558 19.8608C149.415 20.2756 150.094 20.858 150.594 21.608C151.094 22.358 151.37 23.2386 151.421 24.25H147.995C147.898 23.5966 147.643 23.071 147.228 22.6733C146.819 22.2699 146.282 22.0682 145.617 22.0682C145.055 22.0682 144.563 22.2216 144.143 22.5284C143.728 22.8295 143.404 23.2699 143.171 23.8494C142.938 24.429 142.822 25.1307 142.822 25.9545C142.822 26.7898 142.935 27.5 143.163 28.0852C143.396 28.6705 143.722 29.1165 144.143 29.4233C144.563 29.7301 145.055 29.8835 145.617 29.8835C146.032 29.8835 146.404 29.7983 146.734 29.6278C147.069 29.4574 147.344 29.2102 147.56 28.8864C147.782 28.5568 147.927 28.1619 147.995 27.7017H151.421C151.364 28.7017 151.092 29.5824 150.603 30.3438C150.12 31.0994 149.452 31.6903 148.6 32.1165C147.748 32.5426 146.739 32.7557 145.575 32.7557ZM153.746 32.5V19.4091H157.376V32.5H153.746ZM155.57 17.7216C155.03 17.7216 154.567 17.5426 154.18 17.1847C153.8 16.821 153.609 16.3864 153.609 15.8807C153.609 15.3807 153.8 14.9517 154.18 14.5938C154.567 14.2301 155.03 14.0483 155.57 14.0483C156.109 14.0483 156.57 14.2301 156.95 14.5938C157.337 14.9517 157.53 15.3807 157.53 15.8807C157.53 16.3864 157.337 16.821 156.95 17.1847C156.57 17.5426 156.109 17.7216 155.57 17.7216ZM164.018 32.7472C163.183 32.7472 162.438 32.6023 161.785 32.3125C161.131 32.017 160.614 31.5824 160.234 31.0085C159.859 30.429 159.671 29.7074 159.671 28.8438C159.671 28.1165 159.805 27.5057 160.072 27.0114C160.339 26.517 160.702 26.1193 161.163 25.8182C161.623 25.517 162.146 25.2898 162.731 25.1364C163.322 24.983 163.941 24.875 164.589 24.8125C165.35 24.733 165.964 24.6591 166.43 24.5909C166.896 24.517 167.234 24.4091 167.444 24.267C167.654 24.125 167.759 23.9148 167.759 23.6364V23.5852C167.759 23.0455 167.589 22.6278 167.248 22.3324C166.913 22.0369 166.435 21.8892 165.816 21.8892C165.163 21.8892 164.643 22.0341 164.256 22.3239C163.87 22.608 163.614 22.9659 163.489 23.3977L160.131 23.125C160.302 22.3295 160.637 21.642 161.137 21.0625C161.637 20.4773 162.282 20.0284 163.072 19.7159C163.867 19.3977 164.788 19.2386 165.833 19.2386C166.56 19.2386 167.256 19.3239 167.921 19.4943C168.592 19.6648 169.185 19.929 169.702 20.2869C170.225 20.6449 170.637 21.1051 170.938 21.6676C171.239 22.2244 171.39 22.892 171.39 23.6705V32.5H167.947V30.6847H167.844C167.634 31.0938 167.353 31.4545 167.001 31.767C166.648 32.0739 166.225 32.3153 165.731 32.4915C165.237 32.6619 164.665 32.7472 164.018 32.7472ZM165.058 30.2415C165.592 30.2415 166.063 30.1364 166.472 29.9261C166.881 29.7102 167.202 29.4205 167.435 29.0568C167.668 28.6932 167.785 28.2812 167.785 27.821V26.4318C167.671 26.5057 167.515 26.5739 167.316 26.6364C167.123 26.6932 166.904 26.7472 166.66 26.7983C166.415 26.8437 166.171 26.8864 165.927 26.9261C165.683 26.9602 165.461 26.9915 165.262 27.0199C164.836 27.0824 164.464 27.1818 164.146 27.3182C163.827 27.4545 163.58 27.6392 163.404 27.8722C163.228 28.0994 163.14 28.3835 163.14 28.7244C163.14 29.2188 163.319 29.5966 163.677 29.858C164.04 30.1136 164.501 30.2415 165.058 30.2415ZM177.837 15.0455V32.5H174.207V15.0455H177.837Z" fill="white"/>
</svg>
